<?xml version="1.0" standalone="no"?>
<!DOCTYPE svg PUBLIC "-//W3C//DTD SVG 20010904//EN"
 "http://www.w3.org/TR/2001/REC-SVG-20010904/DTD/svg10.dtd">
<svg version="1.0" xmlns="http://www.w3.org/2000/svg"
 width="640.000000pt" height="640.000000pt" viewBox="0 0 640.000000 640.000000"
 preserveAspectRatio="xMidYMid meet">
<metadata>
Created by potrace 1.11, written by Peter Selinger 2001-2013
</metadata>
<g transform="translate(0.000000,640.000000) scale(0.100000,-0.100000)"
fill="#000000" stroke="none">
<path d="M3718 5765 c-2 -2 -51 -7 -109 -10 -57 -3 -126 -7 -154 -10 -27 -2
-81 -7 -120 -10 -113 -10 -196 -18 -295 -30 -14 -2 -50 -6 -80 -10 -30 -3 -68
-8 -85 -11 -16 -3 -46 -7 -65 -9 -19 -1 -78 -10 -130 -18 -52 -9 -113 -19
-135 -21 -22 -3 -51 -8 -65 -11 -22 -4 -68 -12 -125 -21 -11 -1 -45 -8 -75
-14 -30 -6 -66 -13 -80 -15 -41 -8 -68 -13 -200 -41 -69 -14 -133 -28 -143
-29 -9 -2 -21 -6 -25 -9 -4 -2 -27 -7 -52 -11 -24 -4 -53 -11 -63 -17 -10 -5
-21 -7 -24 -4 -4 3 -12 1 -20 -5 -7 -6 -13 -9 -13 -6 0 3 -15 1 -32 -4 -18 -6
-42 -12 -53 -14 -39 -9 -112 -28 -155 -40 -8 -2 -42 -11 -75 -20 -117 -32
-528 -159 -585 -182 -8 -4 -17 -7 -20 -8 -3 -1 -14 -5 -25 -9 -11 -5 -63 -24
-115 -44 -52 -19 -127 -50 -167 -68 -39 -18 -74 -30 -77 -26 -3 3 -6 1 -6 -5
0 -10 -19 -19 -58 -28 -7 -2 -19 -8 -26 -14 -7 -6 -35 -23 -62 -37 -27 -15
-58 -32 -69 -38 -25 -13 -46 -31 -91 -75 -48 -46 -43 -69 23 -102 29 -15 53
-25 53 -24 0 6 204 -89 233 -108 14 -9 31 -17 38 -17 6 0 23 -8 37 -18 15 -11
52 -32 82 -49 67 -36 101 -56 114 -66 6 -4 56 -37 111 -74 55 -36 112 -75 127
-87 14 -11 41 -32 59 -46 47 -35 147 -118 194 -160 57 -50 291 -286 348 -350
89 -100 299 -369 367 -470 8 -12 30 -42 48 -66 17 -23 32 -47 32 -53 0 -5 3
-11 8 -13 11 -5 52 -66 52 -78 0 -5 5 -10 10 -10 6 0 10 -7 10 -15 0 -8 4 -15
8 -15 5 0 14 -11 20 -25 7 -14 17 -31 22 -38 15 -17 119 -178 127 -197 7 -16
75 -122 83 -130 3 -3 12 -19 21 -35 32 -59 184 -300 191 -303 4 -2 8 -8 8 -13
0 -5 22 -41 48 -81 27 -40 62 -95 80 -123 17 -27 35 -55 39 -60 5 -6 28 -39
52 -75 63 -91 211 -293 225 -305 6 -6 27 -30 46 -55 101 -131 384 -411 483
-479 12 -8 24 -17 27 -21 3 -3 22 -16 42 -30 21 -14 38 -28 38 -32 0 -5 5 -8
11 -8 5 0 36 -18 68 -39 102 -69 380 -206 460 -227 9 -2 70 -20 135 -39 107
-32 227 -58 326 -71 40 -5 37 -9 91 136 17 47 39 103 49 125 10 22 29 74 44
115 15 41 33 89 40 105 15 33 70 177 71 185 0 3 6 14 12 25 6 11 12 23 12 27
2 13 12 40 38 103 13 33 25 65 27 70 2 6 7 19 11 30 4 11 50 130 102 265 51
135 98 253 103 262 6 10 10 23 10 30 1 7 9 31 20 53 11 22 19 47 20 55 0 9 4
20 8 25 5 6 17 33 27 60 9 28 23 64 30 80 17 40 59 149 61 155 0 3 4 14 9 25
4 11 20 52 35 90 15 39 31 79 35 90 5 11 9 22 9 25 1 6 23 62 41 105 21 52 40
100 41 105 1 6 12 35 25 68 5 13 9 27 9 32 0 14 -392 203 -700 337 -69 30
-138 61 -155 68 -73 32 -326 135 -331 135 -3 0 -20 7 -37 15 -61 28 -602 228
-647 239 -8 3 -69 23 -135 45 -66 23 -120 41 -120 41 0 -1 -7 1 -15 4 -62 20
-218 68 -280 86 -41 12 -86 25 -100 30 -81 28 -551 152 -574 151 -10 0 -16 3
-13 6 7 6 37 10 142 18 39 2 93 7 120 9 242 21 888 22 1039 0 17 -2 69 -7 116
-10 47 -3 99 -7 115 -8 17 -2 57 -7 90 -10 77 -9 108 -13 170 -22 28 -4 59 -8
70 -9 11 -1 36 -5 55 -8 19 -4 53 -9 74 -12 21 -3 48 -8 60 -10 12 -3 37 -7
56 -9 19 -2 69 -11 110 -20 41 -8 86 -18 100 -20 116 -24 268 -58 280 -63 8
-3 26 -8 40 -10 24 -4 110 -27 217 -59 29 -9 58 -17 65 -18 7 -2 40 -11 73
-21 33 -10 65 -20 70 -21 6 -2 71 -23 145 -49 74 -25 148 -50 163 -55 31 -10
25 -19 73 110 13 36 28 74 33 85 5 11 17 43 27 70 9 28 21 54 26 60 4 5 8 16
8 25 1 8 9 33 20 55 11 22 19 48 20 57 0 9 4 20 10 23 6 3 10 15 10 26 0 10 4
19 8 19 5 0 9 6 9 13 0 9 113 309 148 392 5 11 9 22 10 25 1 3 7 19 14 35 6
17 23 62 37 100 15 39 31 79 36 89 6 11 14 31 19 45 4 14 22 62 39 106 17 44
38 97 45 118 l14 37 -92 44 c-51 24 -130 58 -177 76 -47 18 -94 36 -105 40
-11 4 -49 18 -85 30 -36 12 -72 25 -80 28 -18 6 -28 9 -55 16 -11 3 -62 16
-112 30 -51 14 -104 28 -118 30 -13 3 -29 7 -34 10 -5 4 -22 8 -38 10 -15 2
-53 9 -83 16 -95 20 -244 46 -320 55 -25 4 -58 8 -75 10 -16 2 -46 6 -65 9
-19 3 -62 7 -95 10 -33 3 -87 8 -120 12 -132 13 -215 16 -592 19 -256 3 -395
1 -399 -6 -4 -7 -10 -6 -18 0 -7 6 -15 9 -18 6z"/>
</g>
</svg>
