<svg xmlns="http://www.w3.org/2000/svg" viewBox="0 0 592.12 111.44" width="100" style="width: 100px; max-height: 84px" role="img">
<title>DAMATO Design System logo</title>
<path style="fill: var(--accent--defaultColor)" d="M97.46,35.09c1.63,0.89,3.37,1.39,5.13,1.61l5.93-15.33c-10.14-5.14-19.51-7.22-19.51-7.22s9.98-1.5,21.28,2.63l3.63-9.37
	c-0.3-0.15-0.61-0.29-0.93-0.44c-15.26-6.71-41.83,2.81-38.75,4.03C87.42,16.23,88.05,29.93,97.46,35.09z"/><path style="fill: currentColor" d="M0 2.94h40.6c7.19 0 13.93 1.45 20.23 4.34 6.3 2.89 11.81 6.74 16.52 11.55 4.71 4.81 8.42 10.41 11.13 16.8 2.71 6.39 4.06 13.09 4.06 20.09 0 6.91-1.33 13.56-3.99 19.95-2.66 6.39-6.35 12.02-11.06 16.87-4.71 4.85-10.22 8.73-16.52 11.62-6.3 2.89-13.09 4.34-20.37 4.34H0V2.94zM27.44 85.26h6.3c4.76 0 9.01-.75 12.74-2.24 3.73-1.49 6.88-3.54 9.45-6.16 2.57-2.61 4.53-5.71 5.88-9.31 1.35-3.59 2.03-7.54 2.03-11.83 0-4.2-.7-8.12-2.1-11.76-1.4-3.64-3.38-6.77-5.95-9.38-2.57-2.61-5.72-4.67-9.45-6.16-3.73-1.49-7.93-2.24-12.6-2.24h-6.3V85.26zM155.04 90.16h-39.2l-6.3 18.34H80.28L120.46 2.94h29.96L190.6 108.5h-29.26L155.04 90.16zM147.76 69.3l-12.32-35.14L123.12 69.3H147.76zM190.88 108.5L208.8 2.94h27.16l21.14 56.28 21-56.28h27.16l17.92 105.56h-27.3l-9.1-60.76-24.92 60.76h-10.92l-23.66-60.76-9.1 60.76H190.88zM398.22 90.16h-39.2l-6.3 18.34h-29.26L363.64 2.94h29.96l40.18 105.56h-29.26L398.22 90.16zM390.94 69.3l-12.32-35.14L366.3 69.3H390.94zM461.64 26.18v82.32H434.2V26.18h-22.54V2.94h72.52v23.24H461.64z M475.22,55.72c0-7.84,1.45-15.14,4.34-21.91c2.89-6.77,6.91-12.67,12.04-17.71c5.13-5.04,11.27-8.98,18.41-11.83 c7.14-2.85,15-4.27,23.59-4.27c8.49,0,16.33,1.42,23.52,4.27c7.19,2.85,13.37,6.79,18.55,11.83s9.22,10.94,12.11,17.71 c2.89,6.77,4.34,14.07,4.34,21.91c0,7.84-1.45,15.14-4.34,21.91c-2.89,6.77-6.93,12.67-12.11,17.71s-11.36,8.98-18.55,11.83 c-7.19,2.85-15.03,4.27-23.52,4.27c-8.59,0-16.45-1.42-23.59-4.27c-7.14-2.85-13.28-6.79-18.41-11.83 c-5.13-5.04-9.15-10.94-12.04-17.71C476.66,70.86,475.22,63.56,475.22,55.72z M503.92,55.72c0,4.2,0.79,8.07,2.38,11.62 c1.59,3.55,3.73,6.63,6.44,9.24c2.71,2.61,5.86,4.64,9.45,6.09c3.59,1.45,7.4,2.17,11.41,2.17c4.01,0,7.82-0.72,11.41-2.17 c3.59-1.45,6.77-3.48,9.52-6.09c2.75-2.61,4.92-5.69,6.51-9.24c1.59-3.55,2.38-7.42,2.38-11.62c0-4.2-0.79-8.07-2.38-11.62 c-1.59-3.54-3.76-6.62-6.51-9.24c-2.75-2.61-5.93-4.64-9.52-6.09c-3.59-1.45-7.4-2.17-11.41-2.17c-4.01,0-7.82,0.72-11.41,2.17 c-3.59,1.45-6.74,3.48-9.45,6.09c-2.71,2.62-4.85,5.7-6.44,9.24C504.71,47.65,503.92,51.52,503.92,55.72z"/></svg>